<?xml version="1.0" encoding="UTF-8" standalone="no"?>
<!DOCTYPE svg PUBLIC "-//W3C//DTD SVG 1.1//EN"
 "http://www.w3.org/Graphics/SVG/1.1/DTD/svg11.dtd">
<!-- Generated by graphviz version 2.43.0 (0)
 -->
<!-- Title: dependency&#45;cruiser output Pages: 1 -->
<svg width="225pt" height="440pt"
 viewBox="0.00 0.00 225.00 440.00" xmlns="http://www.w3.org/2000/svg" xmlns:xlink="http://www.w3.org/1999/xlink">
<g id="graph0" class="graph" transform="scale(1 1) rotate(0) translate(4 436)">
<title>dependency&#45;cruiser output</title>
<polygon fill="white" stroke="transparent" points="-4,4 -4,-436 221,-436 221,4 -4,4"/>
<g id="clust1" class="cluster">
<title>cluster_src</title>
<path fill="#ffffff" stroke="black" stroke-width="2" d="M20,-8C20,-8 197,-8 197,-8 203,-8 209,-14 209,-20 209,-20 209,-412 209,-412 209,-418 203,-424 197,-424 197,-424 20,-424 20,-424 14,-424 8,-418 8,-412 8,-412 8,-20 8,-20 8,-14 14,-8 20,-8"/>
<text text-anchor="middle" x="108.5" y="-412.8" font-family="Helvetica,sans-Serif" font-weight="bold" font-size="9.00">src</text>
</g>
<g id="clust2" class="cluster">
<title>cluster_src/components</title>
<path fill="#ffffff" stroke="black" stroke-width="2" d="M105.5,-42C105.5,-42 173.5,-42 173.5,-42 179.5,-42 185.5,-48 185.5,-54 185.5,-54 185.5,-116 185.5,-116 185.5,-122 179.5,-128 173.5,-128 173.5,-128 105.5,-128 105.5,-128 99.5,-128 93.5,-122 93.5,-116 93.5,-116 93.5,-54 93.5,-54 93.5,-48 99.5,-42 105.5,-42"/>
<text text-anchor="middle" x="139.5" y="-116.8" font-family="Helvetica,sans-Serif" font-weight="bold" font-size="9.00">components</text>
</g>
<g id="clust3" class="cluster">
<title>cluster_src/components/ui</title>
<path fill="#ffffff" stroke="black" stroke-width="2" d="M113.5,-50C113.5,-50 165.5,-50 165.5,-50 171.5,-50 177.5,-56 177.5,-62 177.5,-62 177.5,-90 177.5,-90 177.5,-96 171.5,-102 165.5,-102 165.5,-102 113.5,-102 113.5,-102 107.5,-102 101.5,-96 101.5,-90 101.5,-90 101.5,-62 101.5,-62 101.5,-56 107.5,-50 113.5,-50"/>
<text text-anchor="middle" x="139.5" y="-90.8" font-family="Helvetica,sans-Serif" font-weight="bold" font-size="9.00">ui</text>
</g>
<g id="clust4" class="cluster">
<title>cluster_src/pages</title>
<path fill="#ffffff" stroke="black" stroke-width="2" d="M90,-162C90,-162 189,-162 189,-162 195,-162 201,-168 201,-174 201,-174 201,-326 201,-326 201,-332 195,-338 189,-338 189,-338 90,-338 90,-338 84,-338 78,-332 78,-326 78,-326 78,-174 78,-174 78,-168 84,-162 90,-162"/>
<text text-anchor="middle" x="139.5" y="-326.8" font-family="Helvetica,sans-Serif" font-weight="bold" font-size="9.00">pages</text>
</g>
<g id="clust5" class="cluster">
<title>cluster_src/pages/private</title>
<path fill="#ffffff" stroke="black" stroke-width="2" d="M98,-170C98,-170 181,-170 181,-170 187,-170 193,-176 193,-182 193,-182 193,-300 193,-300 193,-306 187,-312 181,-312 181,-312 98,-312 98,-312 92,-312 86,-306 86,-300 86,-300 86,-182 86,-182 86,-176 92,-170 98,-170"/>
<text text-anchor="middle" x="139.5" y="-300.8" font-family="Helvetica,sans-Serif" font-weight="bold" font-size="9.00">private</text>
</g>
<g id="clust6" class="cluster">
<title>cluster_src/servicios</title>
<path fill="#ffffff" stroke="black" stroke-width="2" d="M110.5,-346C110.5,-346 168.5,-346 168.5,-346 174.5,-346 180.5,-352 180.5,-358 180.5,-358 180.5,-386 180.5,-386 180.5,-392 174.5,-398 168.5,-398 168.5,-398 110.5,-398 110.5,-398 104.5,-398 98.5,-392 98.5,-386 98.5,-386 98.5,-358 98.5,-358 98.5,-352 104.5,-346 110.5,-346"/>
<text text-anchor="middle" x="139.5" y="-386.8" font-family="Helvetica,sans-Serif" font-weight="bold" font-size="9.00">servicios</text>
</g>
<!-- src/App.jsx -->
<g id="node1" class="node">
<title>src/App.jsx</title>
<g id="a_node1"><a xlink:href="src/App.jsx" xlink:title="App.jsx">
<polygon fill="#5fa8e0" stroke="black" points="166.5,-34 112.5,-34 112.5,-16 166.5,-16 166.5,-34"/>
<text text-anchor="start" x="124" y="-22.8" font-family="Helvetica,sans-Serif" font-size="9.00">App.jsx</text>
</a>
</g>
</g>
<!-- src/components/ui/Toaster.jsx -->
<g id="node2" class="node">
<title>src/components/ui/Toaster.jsx</title>
<g id="a_node2"><a xlink:href="src/components/ui/Toaster.jsx" xlink:title="Toaster.jsx">
<polygon fill="#5fa8e0" stroke="black" points="169.5,-76 109.5,-76 109.5,-58 169.5,-58 169.5,-76"/>
<text text-anchor="start" x="117.5" y="-64.8" font-family="Helvetica,sans-Serif" font-size="9.00">Toaster.jsx</text>
</a>
</g>
</g>
<!-- src/index.css -->
<g id="node3" class="node">
<title>src/index.css</title>
<g id="a_node3"><a xlink:href="src/index.css" xlink:title="index.css">
<polygon fill="#5fa8e0" stroke="black" points="167,-154 112,-154 112,-136 167,-136 167,-154"/>
<text text-anchor="start" x="120" y="-142.8" font-family="Helvetica,sans-Serif" font-size="9.00">index.css</text>
</a>
</g>
</g>
<!-- src/main.jsx -->
<g id="node4" class="node">
<title>src/main.jsx</title>
<g id="a_node4"><a xlink:href="src/main.jsx" xlink:title="main.jsx">
<polygon fill="#7bc96f" stroke="black" points="70,-211 16,-211 16,-193 70,-193 70,-211"/>
<text text-anchor="start" x="26" y="-199.8" font-family="Helvetica,sans-Serif" font-size="9.00">main.jsx</text>
</a>
</g>
</g>
<!-- src/main.jsx&#45;&gt;src/App.jsx -->
<g id="edge1" class="edge">
<title>src/main.jsx&#45;&gt;src/App.jsx</title>
<path fill="none" stroke="#000000" stroke-width="2" stroke-opacity="0.200000" d="M44.88,-192.64C47.87,-162.59 58.59,-69.18 78,-47 85.26,-38.7 95.91,-33.54 106.26,-30.32"/>
<polygon fill="#000000" fill-opacity="0.200000" stroke="#000000" stroke-width="2" stroke-opacity="0.200000" points="107.07,-32.27 112.28,-28.64 105.94,-28.22 107.07,-32.27"/>
</g>
<!-- src/main.jsx&#45;&gt;src/components/ui/Toaster.jsx -->
<g id="edge2" class="edge">
<title>src/main.jsx&#45;&gt;src/components/ui/Toaster.jsx</title>
<path fill="none" stroke="#000000" stroke-width="2" stroke-opacity="0.200000" d="M43.6,-192.75C43.14,-169.96 45.34,-110.75 78,-80 84.87,-73.54 94.13,-69.98 103.35,-68.09"/>
<polygon fill="#000000" fill-opacity="0.200000" stroke="#000000" stroke-width="2" stroke-opacity="0.200000" points="103.81,-70.14 109.38,-67.08 103.11,-66 103.81,-70.14"/>
</g>
<!-- src/main.jsx&#45;&gt;src/index.css -->
<g id="edge3" class="edge">
<title>src/main.jsx&#45;&gt;src/index.css</title>
<path fill="none" stroke="#000000" stroke-width="2" stroke-opacity="0.200000" d="M50.92,-192.83C57.23,-185.02 67.19,-174 78,-167 86.55,-161.47 96.67,-157.09 106.17,-153.74"/>
<polygon fill="#000000" fill-opacity="0.200000" stroke="#000000" stroke-width="2" stroke-opacity="0.200000" points="106.96,-155.69 111.98,-151.79 105.63,-151.71 106.96,-155.69"/>
</g>
<!-- src/pages/private/ActualizarMeta.jsx -->
<g id="node5" class="node">
<title>src/pages/private/ActualizarMeta.jsx</title>
<g id="a_node5"><a xlink:href="src/pages/private/ActualizarMeta.jsx" xlink:title="ActualizarMeta.jsx">
<polygon fill="#5fa8e0" stroke="black" points="185,-286 94,-286 94,-268 185,-268 185,-286"/>
<text text-anchor="start" x="102" y="-274.8" font-family="Helvetica,sans-Serif" font-size="9.00">ActualizarMeta.jsx</text>
</a>
</g>
</g>
<!-- src/main.jsx&#45;&gt;src/pages/private/ActualizarMeta.jsx -->
<g id="edge4" class="edge">
<title>src/main.jsx&#45;&gt;src/pages/private/ActualizarMeta.jsx</title>
<path fill="none" stroke="#000000" stroke-width="2" stroke-opacity="0.200000" d="M46.67,-211.28C51,-224.6 60.83,-248.97 78,-262 81.11,-264.36 84.55,-266.35 88.16,-268.04"/>
<polygon fill="#000000" fill-opacity="0.200000" stroke="#000000" stroke-width="2" stroke-opacity="0.200000" points="87.6,-270.08 93.95,-270.43 89.21,-266.2 87.6,-270.08"/>
</g>
<!-- src/pages/private/CrearMeta.jsx -->
<g id="node6" class="node">
<title>src/pages/private/CrearMeta.jsx</title>
<g id="a_node6"><a xlink:href="src/pages/private/CrearMeta.jsx" xlink:title="CrearMeta.jsx">
<polygon fill="#5fa8e0" stroke="black" points="176.5,-256 102.5,-256 102.5,-238 176.5,-238 176.5,-256"/>
<text text-anchor="start" x="110.5" y="-244.8" font-family="Helvetica,sans-Serif" font-size="9.00">CrearMeta.jsx</text>
</a>
</g>
</g>
<!-- src/main.jsx&#45;&gt;src/pages/private/CrearMeta.jsx -->
<g id="edge5" class="edge">
<title>src/main.jsx&#45;&gt;src/pages/private/CrearMeta.jsx</title>
<path fill="none" stroke="#000000" stroke-width="2" stroke-opacity="0.200000" d="M52.06,-211.18C58.46,-217.9 67.96,-226.74 78,-232 83.72,-235 90.07,-237.42 96.43,-239.36"/>
<polygon fill="#000000" fill-opacity="0.200000" stroke="#000000" stroke-width="2" stroke-opacity="0.200000" points="95.92,-241.4 102.27,-241.01 97.07,-237.36 95.92,-241.4"/>
</g>
<!-- src/pages/private/Lista.jsx -->
<g id="node7" class="node">
<title>src/pages/private/Lista.jsx</title>
<g id="a_node7"><a xlink:href="src/pages/private/Lista.jsx" xlink:title="Lista.jsx">
<polygon fill="#5fa8e0" stroke="black" points="166.5,-226 112.5,-226 112.5,-208 166.5,-208 166.5,-226"/>
<text text-anchor="start" x="122.5" y="-214.8" font-family="Helvetica,sans-Serif" font-size="9.00">Lista.jsx</text>
</a>
</g>
</g>
<!-- src/main.jsx&#45;&gt;src/pages/private/Lista.jsx -->
<g id="edge6" class="edge">
<title>src/main.jsx&#45;&gt;src/pages/private/Lista.jsx</title>
<path fill="none" stroke="#000000" stroke-width="2" stroke-opacity="0.200000" d="M70.07,-206.14C81.24,-207.91 94.39,-210 106.17,-211.87"/>
<polygon fill="#000000" fill-opacity="0.200000" stroke="#000000" stroke-width="2" stroke-opacity="0.200000" points="105.93,-213.96 112.18,-212.82 106.59,-209.81 105.93,-213.96"/>
</g>
<!-- src/pages/private/NoEncontrado.jsx -->
<g id="node8" class="node">
<title>src/pages/private/NoEncontrado.jsx</title>
<g id="a_node8"><a xlink:href="src/pages/private/NoEncontrado.jsx" xlink:title="NoEncontrado.jsx">
<polygon fill="#5fa8e0" stroke="black" points="184,-196 95,-196 95,-178 184,-178 184,-196"/>
<text text-anchor="start" x="103" y="-184.8" font-family="Helvetica,sans-Serif" font-size="9.00">NoEncontrado.jsx</text>
</a>
</g>
</g>
<!-- src/main.jsx&#45;&gt;src/pages/private/NoEncontrado.jsx -->
<g id="edge7" class="edge">
<title>src/main.jsx&#45;&gt;src/pages/private/NoEncontrado.jsx</title>
<path fill="none" stroke="#000000" stroke-width="2" stroke-opacity="0.200000" d="M70.07,-197.86C75.93,-196.93 82.33,-195.92 88.8,-194.89"/>
<polygon fill="#000000" fill-opacity="0.200000" stroke="#000000" stroke-width="2" stroke-opacity="0.200000" points="89.14,-196.96 94.74,-193.95 88.48,-192.81 89.14,-196.96"/>
</g>
<!-- src/servicios/Memoria.jsx -->
<g id="node9" class="node">
<title>src/servicios/Memoria.jsx</title>
<g id="a_node9"><a xlink:href="src/servicios/Memoria.jsx" xlink:title="Memoria.jsx">
<polygon fill="#5fa8e0" stroke="black" points="172.5,-372 106.5,-372 106.5,-354 172.5,-354 172.5,-372"/>
<text text-anchor="start" x="114.5" y="-360.8" font-family="Helvetica,sans-Serif" font-size="9.00">Memoria.jsx</text>
</a>
</g>
</g>
<!-- src/main.jsx&#45;&gt;src/servicios/Memoria.jsx -->
<g id="edge8" class="edge">
<title>src/main.jsx&#45;&gt;src/servicios/Memoria.jsx</title>
<path fill="none" stroke="#000000" stroke-width="2" stroke-opacity="0.200000" d="M44.9,-211.29C47.26,-231.7 55.11,-281.26 78,-315 87.95,-329.66 103.74,-341.97 116.7,-350.46"/>
<polygon fill="#000000" fill-opacity="0.200000" stroke="#000000" stroke-width="2" stroke-opacity="0.200000" points="115.86,-352.41 122.05,-353.85 118.11,-348.87 115.86,-352.41"/>
</g>
</g>
</svg>
