<?xml version="1.0" encoding="UTF-8" standalone="no"?>
<!DOCTYPE svg PUBLIC "-//W3C//DTD SVG 1.1//EN"
 "http://www.w3.org/Graphics/SVG/1.1/DTD/svg11.dtd">
<!-- Generated by graphviz version 2.43.0 (0)
 -->
<!-- Title: dependency&#45;cruiser output Pages: 1 -->
<svg width="715pt" height="708pt"
 viewBox="0.00 0.00 715.00 708.00" xmlns="http://www.w3.org/2000/svg" xmlns:xlink="http://www.w3.org/1999/xlink">
<g id="graph0" class="graph" transform="scale(1 1) rotate(0) translate(4 704)">
<title>dependency&#45;cruiser output</title>
<polygon fill="white" stroke="transparent" points="-4,4 -4,-704 711,-704 711,4 -4,4"/>
<g id="clust1" class="cluster">
<title>cluster_src</title>
<path fill="#ffffff" stroke="black" stroke-width="2" d="M20,-8C20,-8 687,-8 687,-8 693,-8 699,-14 699,-20 699,-20 699,-680 699,-680 699,-686 693,-692 687,-692 687,-692 20,-692 20,-692 14,-692 8,-686 8,-680 8,-680 8,-20 8,-20 8,-14 14,-8 20,-8"/>
<text text-anchor="middle" x="353.5" y="-680.8" font-family="Helvetica,sans-Serif" font-weight="bold" font-size="9.00">src</text>
</g>
<g id="clust2" class="cluster">
<title>cluster_src/components</title>
<path fill="#ffffff" stroke="black" stroke-width="2" d="M371,-16C371,-16 581,-16 581,-16 587,-16 593,-22 593,-28 593,-28 593,-390 593,-390 593,-396 587,-402 581,-402 581,-402 371,-402 371,-402 365,-402 359,-396 359,-390 359,-390 359,-28 359,-28 359,-22 365,-16 371,-16"/>
<text text-anchor="middle" x="476" y="-390.8" font-family="Helvetica,sans-Serif" font-weight="bold" font-size="9.00">components</text>
</g>
<g id="clust3" class="cluster">
<title>cluster_src/components/form</title>
<path fill="#ffffff" stroke="black" stroke-width="2" d="M379,-324C379,-324 442,-324 442,-324 448,-324 454,-330 454,-336 454,-336 454,-364 454,-364 454,-370 448,-376 442,-376 442,-376 379,-376 379,-376 373,-376 367,-370 367,-364 367,-364 367,-336 367,-336 367,-330 373,-324 379,-324"/>
<text text-anchor="middle" x="410.5" y="-364.8" font-family="Helvetica,sans-Serif" font-weight="bold" font-size="9.00">form</text>
</g>
<g id="clust4" class="cluster">
<title>cluster_src/components/hooks</title>
<path fill="#ffffff" stroke="black" stroke-width="2" d="M382,-264C382,-264 439,-264 439,-264 445,-264 451,-270 451,-276 451,-276 451,-304 451,-304 451,-310 445,-316 439,-316 439,-316 382,-316 382,-316 376,-316 370,-310 370,-304 370,-304 370,-276 370,-276 370,-270 376,-264 382,-264"/>
<text text-anchor="middle" x="410.5" y="-304.8" font-family="Helvetica,sans-Serif" font-weight="bold" font-size="9.00">hooks</text>
</g>
<g id="clust5" class="cluster">
<title>cluster_src/components/layout</title>
<path fill="#ffffff" stroke="black" stroke-width="2" d="M385.5,-144C385.5,-144 573,-144 573,-144 579,-144 585,-150 585,-156 585,-156 585,-244 585,-244 585,-250 579,-256 573,-256 573,-256 385.5,-256 385.5,-256 379.5,-256 373.5,-250 373.5,-244 373.5,-244 373.5,-156 373.5,-156 373.5,-150 379.5,-144 385.5,-144"/>
<text text-anchor="middle" x="479.25" y="-244.8" font-family="Helvetica,sans-Serif" font-weight="bold" font-size="9.00">layout</text>
</g>
<g id="clust6" class="cluster">
<title>cluster_src/components/ui</title>
<path fill="#ffffff" stroke="black" stroke-width="2" d="M384.5,-24C384.5,-24 554.5,-24 554.5,-24 560.5,-24 566.5,-30 566.5,-36 566.5,-36 566.5,-124 566.5,-124 566.5,-130 560.5,-136 554.5,-136 554.5,-136 384.5,-136 384.5,-136 378.5,-136 372.5,-130 372.5,-124 372.5,-124 372.5,-36 372.5,-36 372.5,-30 378.5,-24 384.5,-24"/>
<text text-anchor="middle" x="469.5" y="-124.8" font-family="Helvetica,sans-Serif" font-weight="bold" font-size="9.00">ui</text>
</g>
<g id="clust7" class="cluster">
<title>cluster_src/data</title>
<path fill="#ffffff" stroke="black" stroke-width="2" d="M387.5,-420C387.5,-420 433.5,-420 433.5,-420 439.5,-420 445.5,-426 445.5,-432 445.5,-432 445.5,-460 445.5,-460 445.5,-466 439.5,-472 433.5,-472 433.5,-472 387.5,-472 387.5,-472 381.5,-472 375.5,-466 375.5,-460 375.5,-460 375.5,-432 375.5,-432 375.5,-426 381.5,-420 387.5,-420"/>
<text text-anchor="middle" x="410.5" y="-460.8" font-family="Helvetica,sans-Serif" font-weight="bold" font-size="9.00">data</text>
</g>
<g id="clust8" class="cluster">
<title>cluster_src/pages</title>
<path fill="#ffffff" stroke="black" stroke-width="2" d="M256,-480C256,-480 441.5,-480 441.5,-480 447.5,-480 453.5,-486 453.5,-492 453.5,-492 453.5,-644 453.5,-644 453.5,-650 447.5,-656 441.5,-656 441.5,-656 256,-656 256,-656 250,-656 244,-650 244,-644 244,-644 244,-492 244,-492 244,-486 250,-480 256,-480"/>
<text text-anchor="middle" x="348.75" y="-644.8" font-family="Helvetica,sans-Serif" font-weight="bold" font-size="9.00">pages</text>
</g>
<g id="clust9" class="cluster">
<title>cluster_src/pages/private</title>
<path fill="#ffffff" stroke="black" stroke-width="2" d="M264,-488C264,-488 433.5,-488 433.5,-488 439.5,-488 445.5,-494 445.5,-500 445.5,-500 445.5,-618 445.5,-618 445.5,-624 439.5,-630 433.5,-630 433.5,-630 264,-630 264,-630 258,-630 252,-624 252,-618 252,-618 252,-500 252,-500 252,-494 258,-488 264,-488"/>
<text text-anchor="middle" x="348.75" y="-618.8" font-family="Helvetica,sans-Serif" font-weight="bold" font-size="9.00">private</text>
</g>
<g id="clust10" class="cluster">
<title>cluster_src/routes</title>
<path fill="#ffffff" stroke="black" stroke-width="2" d="M158,-518C158,-518 224,-518 224,-518 230,-518 236,-524 236,-530 236,-530 236,-558 236,-558 236,-564 230,-570 224,-570 224,-570 158,-570 158,-570 152,-570 146,-564 146,-558 146,-558 146,-530 146,-530 146,-524 152,-518 158,-518"/>
<text text-anchor="middle" x="191" y="-558.8" font-family="Helvetica,sans-Serif" font-weight="bold" font-size="9.00">routes</text>
</g>
<g id="clust11" class="cluster">
<title>cluster_src/servicios</title>
<path fill="#ffffff" stroke="black" stroke-width="2" d="M474,-464C474,-464 679,-464 679,-464 685,-464 691,-470 691,-476 691,-476 691,-534 691,-534 691,-540 685,-546 679,-546 679,-546 474,-546 474,-546 468,-546 462,-540 462,-534 462,-534 462,-476 462,-476 462,-470 468,-464 474,-464"/>
<text text-anchor="middle" x="576.5" y="-534.8" font-family="Helvetica,sans-Serif" font-weight="bold" font-size="9.00">servicios</text>
</g>
<!-- src/App.jsx -->
<g id="node1" class="node">
<title>src/App.jsx</title>
<g id="a_node1"><a xlink:href="src/App.jsx" xlink:title="App.jsx">
<polygon fill="#5fa8e0" stroke="black" points="137.5,-544 83.5,-544 83.5,-526 137.5,-526 137.5,-544"/>
<text text-anchor="start" x="95" y="-532.8" font-family="Helvetica,sans-Serif" font-size="9.00">App.jsx</text>
</a>
</g>
</g>
<!-- src/components/ui/Toaster.jsx -->
<g id="node2" class="node">
<title>src/components/ui/Toaster.jsx</title>
<g id="a_node2"><a xlink:href="src/components/ui/Toaster.jsx" xlink:title="Toaster.jsx">
<polygon fill="#c678dd" stroke="black" points="440.5,-50 380.5,-50 380.5,-32 440.5,-32 440.5,-50"/>
<text text-anchor="start" x="388.5" y="-38.8" font-family="Helvetica,sans-Serif" font-size="9.00">Toaster.jsx</text>
</a>
</g>
</g>
<!-- src/App.jsx&#45;&gt;src/components/ui/Toaster.jsx -->
<g id="edge1" class="edge">
<title>src/App.jsx&#45;&gt;src/components/ui/Toaster.jsx</title>
<path fill="none" stroke="#000000" stroke-width="2" stroke-opacity="0.200000" d="M113.43,-525.78C125.24,-471.73 192.78,-193.56 359,-56 363.45,-52.32 368.78,-49.54 374.28,-47.44"/>
<polygon fill="#000000" fill-opacity="0.200000" stroke="#000000" stroke-width="2" stroke-opacity="0.200000" points="375.27,-49.33 380.28,-45.42 373.93,-45.35 375.27,-49.33"/>
</g>
<!-- src/routes/AppRouter.jsx -->
<g id="node3" class="node">
<title>src/routes/AppRouter.jsx</title>
<g id="a_node3"><a xlink:href="src/routes/AppRouter.jsx" xlink:title="AppRouter.jsx">
<polygon fill="#c678dd" stroke="black" points="228,-544 154,-544 154,-526 228,-526 228,-544"/>
<text text-anchor="start" x="162" y="-532.8" font-family="Helvetica,sans-Serif" font-size="9.00">AppRouter.jsx</text>
</a>
</g>
</g>
<!-- src/App.jsx&#45;&gt;src/routes/AppRouter.jsx -->
<g id="edge2" class="edge">
<title>src/App.jsx&#45;&gt;src/routes/AppRouter.jsx</title>
<path fill="none" stroke="#000000" stroke-width="2" stroke-opacity="0.200000" d="M137.64,-535C140.87,-535 144.24,-535 147.64,-535"/>
<polygon fill="#000000" fill-opacity="0.200000" stroke="#000000" stroke-width="2" stroke-opacity="0.200000" points="147.77,-537.1 153.77,-535 147.77,-532.9 147.77,-537.1"/>
</g>
<!-- src/servicios/Memoria.jsx -->
<g id="node4" class="node">
<title>src/servicios/Memoria.jsx</title>
<g id="a_node4"><a xlink:href="src/servicios/Memoria.jsx" xlink:title="Memoria.jsx">
<polygon fill="#c678dd" stroke="black" points="560.5,-520 494.5,-520 494.5,-502 560.5,-502 560.5,-520"/>
<text text-anchor="start" x="502.5" y="-508.8" font-family="Helvetica,sans-Serif" font-size="9.00">Memoria.jsx</text>
</a>
</g>
</g>
<!-- src/App.jsx&#45;&gt;src/servicios/Memoria.jsx -->
<g id="edge3" class="edge">
<title>src/App.jsx&#45;&gt;src/servicios/Memoria.jsx</title>
<path fill="none" stroke="#000000" stroke-width="2" stroke-opacity="0.200000" d="M131.54,-544.18C133.94,-545.87 136.17,-547.81 138,-550 144.93,-558.31 139.21,-564.57 146,-573 178.04,-612.77 194.84,-619.15 244,-633 333.83,-658.32 372.88,-679.16 454,-633 494.84,-609.76 515.07,-553.44 522.73,-526.22"/>
<polygon fill="#000000" fill-opacity="0.200000" stroke="#000000" stroke-width="2" stroke-opacity="0.200000" points="524.8,-526.61 524.33,-520.27 520.74,-525.52 524.8,-526.61"/>
</g>
<!-- src/components/ui/Toaster.css -->
<g id="node13" class="node">
<title>src/components/ui/Toaster.css</title>
<g id="a_node13"><a xlink:href="src/components/ui/Toaster.css" xlink:title="Toaster.css">
<polygon fill="#e5c07b" stroke="black" points="558.5,-50 496.5,-50 496.5,-32 558.5,-32 558.5,-50"/>
<text text-anchor="start" x="504.5" y="-38.8" font-family="Helvetica,sans-Serif" font-size="9.00">Toaster.css</text>
</a>
</g>
</g>
<!-- src/components/ui/Toaster.jsx&#45;&gt;src/components/ui/Toaster.css -->
<g id="edge8" class="edge">
<title>src/components/ui/Toaster.jsx&#45;&gt;src/components/ui/Toaster.css</title>
<path fill="none" stroke="#000000" stroke-width="2" stroke-opacity="0.200000" d="M440.52,-41C455.56,-41 474.07,-41 490.06,-41"/>
<polygon fill="#000000" fill-opacity="0.200000" stroke="#000000" stroke-width="2" stroke-opacity="0.200000" points="490.29,-43.1 496.29,-41 490.29,-38.9 490.29,-43.1"/>
</g>
<!-- src/servicios/sistemaNotificaciones.js -->
<g id="node14" class="node">
<title>src/servicios/sistemaNotificaciones.js</title>
<g id="a_node14"><a xlink:href="src/servicios/sistemaNotificaciones.js" xlink:title="sistemaNotificaciones.js">
<polygon fill="#e5c07b" stroke="black" points="585,-490 470,-490 470,-472 585,-472 585,-490"/>
<text text-anchor="start" x="478" y="-478.8" font-family="Helvetica,sans-Serif" font-size="9.00">sistemaNotificaciones.js</text>
</a>
</g>
</g>
<!-- src/components/ui/Toaster.jsx&#45;&gt;src/servicios/sistemaNotificaciones.js -->
<g id="edge7" class="edge">
<title>src/components/ui/Toaster.jsx&#45;&gt;src/servicios/sistemaNotificaciones.js</title>
<path fill="none" stroke="#000000" stroke-width="2" stroke-opacity="0.200000" d="M440.62,-46.08C445.83,-48.3 450.66,-51.47 454,-56 467.4,-74.17 458.38,-236.72 462,-259 474.97,-338.81 507.47,-430.49 520.73,-465.93"/>
<polygon fill="#000000" fill-opacity="0.200000" stroke="#000000" stroke-width="2" stroke-opacity="0.200000" points="518.89,-467.01 522.97,-471.88 522.82,-465.53 518.89,-467.01"/>
</g>
<!-- src/components/layout/Layout.jsx -->
<g id="node9" class="node">
<title>src/components/layout/Layout.jsx</title>
<g id="a_node9"><a xlink:href="src/components/layout/Layout.jsx" xlink:title="Layout.jsx">
<polygon fill="#e5c07b" stroke="black" points="439.5,-215 381.5,-215 381.5,-197 439.5,-197 439.5,-215"/>
<text text-anchor="start" x="389.5" y="-203.8" font-family="Helvetica,sans-Serif" font-size="9.00">Layout.jsx</text>
</a>
</g>
</g>
<!-- src/routes/AppRouter.jsx&#45;&gt;src/components/layout/Layout.jsx -->
<g id="edge23" class="edge">
<title>src/routes/AppRouter.jsx&#45;&gt;src/components/layout/Layout.jsx</title>
<path fill="none" stroke="#000000" stroke-width="2" stroke-opacity="0.200000" d="M228.06,-528.07C231.01,-526.45 233.72,-524.45 236,-522 247.45,-509.67 237.24,-500.41 244,-485 277.17,-409.34 321.74,-410.26 351,-333 362.4,-302.89 345.67,-290.31 359,-261 366.61,-244.27 381.27,-229.21 392.85,-219.09"/>
<polygon fill="#000000" fill-opacity="0.200000" stroke="#000000" stroke-width="2" stroke-opacity="0.200000" points="394.37,-220.55 397.59,-215.07 391.66,-217.35 394.37,-220.55"/>
</g>
<!-- src/pages/private/ActualizarMeta.jsx -->
<g id="node18" class="node">
<title>src/pages/private/ActualizarMeta.jsx</title>
<g id="a_node18"><a xlink:href="src/pages/private/ActualizarMeta.jsx" xlink:title="ActualizarMeta.jsx">
<polygon fill="#e5c07b" stroke="black" points="351,-544 260,-544 260,-526 351,-526 351,-544"/>
<text text-anchor="start" x="268" y="-532.8" font-family="Helvetica,sans-Serif" font-size="9.00">ActualizarMeta.jsx</text>
</a>
</g>
</g>
<!-- src/routes/AppRouter.jsx&#45;&gt;src/pages/private/ActualizarMeta.jsx -->
<g id="edge24" class="edge">
<title>src/routes/AppRouter.jsx&#45;&gt;src/pages/private/ActualizarMeta.jsx</title>
<path fill="none" stroke="#000000" stroke-width="2" stroke-opacity="0.200000" d="M228.21,-535C236.2,-535 244.8,-535 253.26,-535"/>
<polygon fill="#000000" fill-opacity="0.200000" stroke="#000000" stroke-width="2" stroke-opacity="0.200000" points="253.68,-537.1 259.68,-535 253.68,-532.9 253.68,-537.1"/>
</g>
<!-- src/pages/private/CrearMeta.jsx -->
<g id="node19" class="node">
<title>src/pages/private/CrearMeta.jsx</title>
<g id="a_node19"><a xlink:href="src/pages/private/CrearMeta.jsx" xlink:title="CrearMeta.jsx">
<polygon fill="#e5c07b" stroke="black" points="342.5,-574 268.5,-574 268.5,-556 342.5,-556 342.5,-574"/>
<text text-anchor="start" x="276.5" y="-562.8" font-family="Helvetica,sans-Serif" font-size="9.00">CrearMeta.jsx</text>
</a>
</g>
</g>
<!-- src/routes/AppRouter.jsx&#45;&gt;src/pages/private/CrearMeta.jsx -->
<g id="edge25" class="edge">
<title>src/routes/AppRouter.jsx&#45;&gt;src/pages/private/CrearMeta.jsx</title>
<path fill="none" stroke="#000000" stroke-width="2" stroke-opacity="0.200000" d="M222.74,-544.08C229.72,-546.08 237.1,-548.15 244,-550 249.88,-551.58 256.1,-553.18 262.22,-554.73"/>
<polygon fill="#000000" fill-opacity="0.200000" stroke="#000000" stroke-width="2" stroke-opacity="0.200000" points="261.96,-556.83 268.29,-556.26 262.98,-552.76 261.96,-556.83"/>
</g>
<!-- src/pages/private/Lista.jsx -->
<g id="node20" class="node">
<title>src/pages/private/Lista.jsx</title>
<g id="a_node20"><a xlink:href="src/pages/private/Lista.jsx" xlink:title="Lista.jsx">
<polygon fill="#e5c07b" stroke="black" points="332.5,-604 278.5,-604 278.5,-586 332.5,-586 332.5,-604"/>
<text text-anchor="start" x="288.5" y="-592.8" font-family="Helvetica,sans-Serif" font-size="9.00">Lista.jsx</text>
</a>
</g>
</g>
<!-- src/routes/AppRouter.jsx&#45;&gt;src/pages/private/Lista.jsx -->
<g id="edge26" class="edge">
<title>src/routes/AppRouter.jsx&#45;&gt;src/pages/private/Lista.jsx</title>
<path fill="none" stroke="#000000" stroke-width="2" stroke-opacity="0.200000" d="M228.4,-542.23C231.21,-543.8 233.8,-545.7 236,-548 246.14,-558.58 233.62,-569.64 244,-580 251.49,-587.48 262.09,-591.43 272.33,-593.46"/>
<polygon fill="#000000" fill-opacity="0.200000" stroke="#000000" stroke-width="2" stroke-opacity="0.200000" points="272.02,-595.54 278.29,-594.45 272.71,-591.4 272.02,-595.54"/>
</g>
<!-- src/pages/private/NoEncontrado.jsx -->
<g id="node22" class="node">
<title>src/pages/private/NoEncontrado.jsx</title>
<g id="a_node22"><a xlink:href="src/pages/private/NoEncontrado.jsx" xlink:title="NoEncontrado.jsx">
<polygon fill="#e5c07b" stroke="black" points="350,-514 261,-514 261,-496 350,-496 350,-514"/>
<text text-anchor="start" x="269" y="-502.8" font-family="Helvetica,sans-Serif" font-size="9.00">NoEncontrado.jsx</text>
</a>
</g>
</g>
<!-- src/routes/AppRouter.jsx&#45;&gt;src/pages/private/NoEncontrado.jsx -->
<g id="edge27" class="edge">
<title>src/routes/AppRouter.jsx&#45;&gt;src/pages/private/NoEncontrado.jsx</title>
<path fill="none" stroke="#000000" stroke-width="2" stroke-opacity="0.200000" d="M222.74,-525.92C229.72,-523.92 237.1,-521.85 244,-520 249.45,-518.54 255.19,-517.05 260.87,-515.61"/>
<polygon fill="#000000" fill-opacity="0.200000" stroke="#000000" stroke-width="2" stroke-opacity="0.200000" points="261.7,-517.56 267.01,-514.06 260.67,-513.49 261.7,-517.56"/>
</g>
<!-- src/servicios/MetasContext.js -->
<g id="node23" class="node">
<title>src/servicios/MetasContext.js</title>
<g id="a_node23"><a xlink:href="src/servicios/MetasContext.js" xlink:title="MetasContext.js">
<polygon fill="#e5c07b" stroke="black" points="683,-520 601,-520 601,-502 683,-502 683,-520"/>
<text text-anchor="start" x="609" y="-508.8" font-family="Helvetica,sans-Serif" font-size="9.00">MetasContext.js</text>
</a>
</g>
</g>
<!-- src/servicios/Memoria.jsx&#45;&gt;src/servicios/MetasContext.js -->
<g id="edge28" class="edge">
<title>src/servicios/Memoria.jsx&#45;&gt;src/servicios/MetasContext.js</title>
<path fill="none" stroke="#000000" stroke-width="2" stroke-opacity="0.200000" d="M560.74,-511C571.26,-511 583.15,-511 594.5,-511"/>
<polygon fill="#000000" fill-opacity="0.200000" stroke="#000000" stroke-width="2" stroke-opacity="0.200000" points="594.74,-513.1 600.74,-511 594.74,-508.9 594.74,-513.1"/>
</g>
<!-- src/components/form/MetaForm.jsx -->
<g id="node5" class="node">
<title>src/components/form/MetaForm.jsx</title>
<g id="a_node5"><a xlink:href="src/components/form/MetaForm.jsx" xlink:title="MetaForm.jsx">
<polygon fill="#e06c75" stroke="black" points="446,-350 375,-350 375,-332 446,-332 446,-350"/>
<text text-anchor="start" x="383" y="-338.8" font-family="Helvetica,sans-Serif" font-size="9.00">MetaForm.jsx</text>
</a>
</g>
</g>
<!-- src/components/hooks/useMetas.js -->
<g id="node6" class="node">
<title>src/components/hooks/useMetas.js</title>
<g id="a_node6"><a xlink:href="src/components/hooks/useMetas.js" xlink:title="useMetas.js">
<polygon fill="#e06c75" stroke="black" points="443,-290 378,-290 378,-272 443,-272 443,-290"/>
<text text-anchor="start" x="386" y="-278.8" font-family="Helvetica,sans-Serif" font-size="9.00">useMetas.js</text>
</a>
</g>
</g>
<!-- src/components/layout/Aside.jsx -->
<g id="node7" class="node">
<title>src/components/layout/Aside.jsx</title>
<g id="a_node7"><a xlink:href="src/components/layout/Aside.jsx" xlink:title="Aside.jsx">
<polygon fill="#e06c75" stroke="black" points="554.5,-170 500.5,-170 500.5,-152 554.5,-152 554.5,-170"/>
<text text-anchor="start" x="509" y="-158.8" font-family="Helvetica,sans-Serif" font-size="9.00">Aside.jsx</text>
</a>
</g>
</g>
<!-- src/components/layout/Encabezamiento.jsx -->
<g id="node8" class="node">
<title>src/components/layout/Encabezamiento.jsx</title>
<g id="a_node8"><a xlink:href="src/components/layout/Encabezamiento.jsx" xlink:title="Encabezamiento.jsx">
<polygon fill="#e06c75" stroke="black" points="577,-200 478,-200 478,-182 577,-182 577,-200"/>
<text text-anchor="start" x="486" y="-188.8" font-family="Helvetica,sans-Serif" font-size="9.00">Encabezamiento.jsx</text>
</a>
</g>
</g>
<!-- src/components/layout/Layout.jsx&#45;&gt;src/components/layout/Aside.jsx -->
<g id="edge4" class="edge">
<title>src/components/layout/Layout.jsx&#45;&gt;src/components/layout/Aside.jsx</title>
<path fill="none" stroke="#000000" stroke-width="2" stroke-opacity="0.200000" d="M424.22,-196.94C434.1,-190.29 448.38,-181.48 462,-176 472.17,-171.91 483.7,-168.79 494.18,-166.48"/>
<polygon fill="#000000" fill-opacity="0.200000" stroke="#000000" stroke-width="2" stroke-opacity="0.200000" points="494.76,-168.5 500.2,-165.21 493.9,-164.39 494.76,-168.5"/>
</g>
<!-- src/components/layout/Layout.jsx&#45;&gt;src/components/layout/Encabezamiento.jsx -->
<g id="edge5" class="edge">
<title>src/components/layout/Layout.jsx&#45;&gt;src/components/layout/Encabezamiento.jsx</title>
<path fill="none" stroke="#000000" stroke-width="2" stroke-opacity="0.200000" d="M439.63,-202.33C449.28,-201.07 460.44,-199.62 471.48,-198.18"/>
<polygon fill="#000000" fill-opacity="0.200000" stroke="#000000" stroke-width="2" stroke-opacity="0.200000" points="471.91,-200.24 477.59,-197.38 471.37,-196.07 471.91,-200.24"/>
</g>
<!-- src/components/layout/Pie.jsx -->
<g id="node10" class="node">
<title>src/components/layout/Pie.jsx</title>
<g id="a_node10"><a xlink:href="src/components/layout/Pie.jsx" xlink:title="Pie.jsx">
<polygon fill="#e06c75" stroke="black" points="554.5,-230 500.5,-230 500.5,-212 554.5,-212 554.5,-230"/>
<text text-anchor="start" x="513.5" y="-218.8" font-family="Helvetica,sans-Serif" font-size="9.00">Pie.jsx</text>
</a>
</g>
</g>
<!-- src/components/layout/Layout.jsx&#45;&gt;src/components/layout/Pie.jsx -->
<g id="edge6" class="edge">
<title>src/components/layout/Layout.jsx&#45;&gt;src/components/layout/Pie.jsx</title>
<path fill="none" stroke="#000000" stroke-width="2" stroke-opacity="0.200000" d="M439.63,-209.67C456.1,-211.82 476.95,-214.54 494.1,-216.77"/>
<polygon fill="#000000" fill-opacity="0.200000" stroke="#000000" stroke-width="2" stroke-opacity="0.200000" points="494.01,-218.88 500.23,-217.57 494.56,-214.72 494.01,-218.88"/>
</g>
<!-- src/components/ui/Button.jsx -->
<g id="node11" class="node">
<title>src/components/ui/Button.jsx</title>
<g id="a_node11"><a xlink:href="src/components/ui/Button.jsx" xlink:title="Button.jsx">
<polygon fill="#e06c75" stroke="black" points="438.5,-110 382.5,-110 382.5,-92 438.5,-92 438.5,-110"/>
<text text-anchor="start" x="390.5" y="-98.8" font-family="Helvetica,sans-Serif" font-size="9.00">Button.jsx</text>
</a>
</g>
</g>
<!-- src/components/ui/Modal.jsx -->
<g id="node12" class="node">
<title>src/components/ui/Modal.jsx</title>
<g id="a_node12"><a xlink:href="src/components/ui/Modal.jsx" xlink:title="Modal.jsx">
<polygon fill="#e06c75" stroke="black" points="438.5,-80 382.5,-80 382.5,-62 438.5,-62 438.5,-80"/>
<text text-anchor="start" x="390.5" y="-68.8" font-family="Helvetica,sans-Serif" font-size="9.00">Modal.jsx</text>
</a>
</g>
</g>
<!-- src/data/mocks.js -->
<g id="node15" class="node">
<title>src/data/mocks.js</title>
<g id="a_node15"><a xlink:href="src/data/mocks.js" xlink:title="mocks.js">
<polygon fill="#e06c75" stroke="black" points="437.5,-446 383.5,-446 383.5,-428 437.5,-428 437.5,-446"/>
<text text-anchor="start" x="392.5" y="-434.8" font-family="Helvetica,sans-Serif" font-size="9.00">mocks.js</text>
</a>
</g>
</g>
<!-- src/index.css -->
<g id="node16" class="node">
<title>src/index.css</title>
<g id="a_node16"><a xlink:href="src/index.css" xlink:title="index.css">
<polygon fill="#5fa8e0" stroke="black" points="138,-574 83,-574 83,-556 138,-556 138,-574"/>
<text text-anchor="start" x="91" y="-562.8" font-family="Helvetica,sans-Serif" font-size="9.00">index.css</text>
</a>
</g>
</g>
<!-- src/main.jsx -->
<g id="node17" class="node">
<title>src/main.jsx</title>
<g id="a_node17"><a xlink:href="src/main.jsx" xlink:title="main.jsx">
<polygon fill="#7bc96f" stroke="black" points="70,-559 16,-559 16,-541 70,-541 70,-559"/>
<text text-anchor="start" x="26" y="-547.8" font-family="Helvetica,sans-Serif" font-size="9.00">main.jsx</text>
</a>
</g>
</g>
<!-- src/main.jsx&#45;&gt;src/App.jsx -->
<g id="edge9" class="edge">
<title>src/main.jsx&#45;&gt;src/App.jsx</title>
<path fill="none" stroke="#000000" stroke-width="2" stroke-opacity="0.200000" d="M70.26,-543.99C72.53,-543.47 74.85,-542.94 77.15,-542.41"/>
<polygon fill="#000000" fill-opacity="0.200000" stroke="#000000" stroke-width="2" stroke-opacity="0.200000" points="77.85,-544.4 83.23,-541.02 76.91,-540.31 77.85,-544.4"/>
</g>
<!-- src/main.jsx&#45;&gt;src/index.css -->
<g id="edge10" class="edge">
<title>src/main.jsx&#45;&gt;src/index.css</title>
<path fill="none" stroke="#000000" stroke-width="2" stroke-opacity="0.200000" d="M70.26,-556.01C72.46,-556.52 74.69,-557.03 76.92,-557.54"/>
<polygon fill="#000000" fill-opacity="0.200000" stroke="#000000" stroke-width="2" stroke-opacity="0.200000" points="76.49,-559.59 82.8,-558.89 77.42,-555.5 76.49,-559.59"/>
</g>
<!-- src/pages/private/ActualizarMeta.jsx&#45;&gt;src/components/form/MetaForm.jsx -->
<g id="edge11" class="edge">
<title>src/pages/private/ActualizarMeta.jsx&#45;&gt;src/components/form/MetaForm.jsx</title>
<path fill="none" stroke="#000000" stroke-width="2" stroke-opacity="0.200000" d="M344.63,-525.95C347.03,-524.29 349.2,-522.32 351,-520 366.4,-500.08 350.09,-430.54 359,-407 366.76,-386.51 383.08,-367.11 395.08,-354.71"/>
<polygon fill="#000000" fill-opacity="0.200000" stroke="#000000" stroke-width="2" stroke-opacity="0.200000" points="396.86,-355.9 399.59,-350.16 393.88,-352.94 396.86,-355.9"/>
</g>
<!-- src/pages/private/ActualizarMeta.jsx&#45;&gt;src/components/hooks/useMetas.js -->
<g id="edge12" class="edge">
<title>src/pages/private/ActualizarMeta.jsx&#45;&gt;src/components/hooks/useMetas.js</title>
<path fill="none" stroke="#000000" stroke-width="2" stroke-opacity="0.200000" d="M345.1,-525.73C347.33,-524.11 349.34,-522.22 351,-520 364.27,-502.29 348.97,-340.72 359,-321 364.87,-309.45 375.77,-300.17 385.94,-293.46"/>
<polygon fill="#000000" fill-opacity="0.200000" stroke="#000000" stroke-width="2" stroke-opacity="0.200000" points="387.19,-295.16 391.16,-290.19 384.96,-291.6 387.19,-295.16"/>
</g>
<!-- src/pages/private/ActualizarMeta.jsx&#45;&gt;src/components/ui/Button.jsx -->
<g id="edge13" class="edge">
<title>src/pages/private/ActualizarMeta.jsx&#45;&gt;src/components/ui/Button.jsx</title>
<path fill="none" stroke="#000000" stroke-width="2" stroke-opacity="0.200000" d="M345.15,-525.76C347.37,-524.14 349.36,-522.23 351,-520 363.47,-503.02 349.63,-159.86 359,-141 364.76,-129.4 375.65,-120.11 385.84,-113.41"/>
<polygon fill="#000000" fill-opacity="0.200000" stroke="#000000" stroke-width="2" stroke-opacity="0.200000" points="387.09,-115.1 391.07,-110.15 384.87,-111.54 387.09,-115.1"/>
</g>
<!-- src/pages/private/ActualizarMeta.jsx&#45;&gt;src/components/ui/Modal.jsx -->
<g id="edge14" class="edge">
<title>src/pages/private/ActualizarMeta.jsx&#45;&gt;src/components/ui/Modal.jsx</title>
<path fill="none" stroke="#000000" stroke-width="2" stroke-opacity="0.200000" d="M345.16,-525.77C347.37,-524.14 349.36,-522.24 351,-520 365.25,-500.54 344.4,-105.19 359,-86 363.24,-80.43 369.46,-76.85 376.1,-74.56"/>
<polygon fill="#000000" fill-opacity="0.200000" stroke="#000000" stroke-width="2" stroke-opacity="0.200000" points="377.07,-76.47 382.27,-72.81 375.92,-72.43 377.07,-76.47"/>
</g>
<!-- src/pages/private/ActualizarMeta.jsx&#45;&gt;src/servicios/sistemaNotificaciones.js -->
<g id="edge15" class="edge">
<title>src/pages/private/ActualizarMeta.jsx&#45;&gt;src/servicios/sistemaNotificaciones.js</title>
<path fill="none" stroke="#000000" stroke-width="2" stroke-opacity="0.200000" d="M351.18,-538.53C388.78,-540.5 438.78,-540.47 454,-528 465.34,-518.71 451.55,-506.28 462,-496 462.89,-495.12 463.82,-494.29 464.79,-493.51"/>
<polygon fill="#000000" fill-opacity="0.200000" stroke="#000000" stroke-width="2" stroke-opacity="0.200000" points="466.18,-495.1 469.9,-489.95 463.78,-491.66 466.18,-495.1"/>
</g>
<!-- src/pages/private/CrearMeta.jsx&#45;&gt;src/components/form/MetaForm.jsx -->
<g id="edge16" class="edge">
<title>src/pages/private/CrearMeta.jsx&#45;&gt;src/components/form/MetaForm.jsx</title>
<path fill="none" stroke="#000000" stroke-width="2" stroke-opacity="0.200000" d="M342.62,-557.3C345.84,-555.38 348.73,-552.98 351,-550 360.64,-537.34 353.48,-421.92 359,-407 366.6,-386.45 382.95,-367.06 395,-354.68"/>
<polygon fill="#000000" fill-opacity="0.200000" stroke="#000000" stroke-width="2" stroke-opacity="0.200000" points="396.79,-355.87 399.54,-350.14 393.81,-352.9 396.79,-355.87"/>
</g>
<!-- src/pages/private/CrearMeta.jsx&#45;&gt;src/components/hooks/useMetas.js -->
<g id="edge17" class="edge">
<title>src/pages/private/CrearMeta.jsx&#45;&gt;src/components/hooks/useMetas.js</title>
<path fill="none" stroke="#000000" stroke-width="2" stroke-opacity="0.200000" d="M342.68,-557.35C345.89,-555.42 348.76,-553.01 351,-550 366.21,-529.58 347.52,-343.72 359,-321 364.89,-309.35 375.89,-300.02 386.13,-293.3"/>
<polygon fill="#000000" fill-opacity="0.200000" stroke="#000000" stroke-width="2" stroke-opacity="0.200000" points="387.41,-294.98 391.39,-290.03 385.19,-291.42 387.41,-294.98"/>
</g>
<!-- src/pages/private/CrearMeta.jsx&#45;&gt;src/components/ui/Button.jsx -->
<g id="edge18" class="edge">
<title>src/pages/private/CrearMeta.jsx&#45;&gt;src/components/ui/Button.jsx</title>
<path fill="none" stroke="#000000" stroke-width="2" stroke-opacity="0.200000" d="M342.73,-557.38C345.93,-555.45 348.78,-553.02 351,-550 364.44,-531.67 348.91,-161.36 359,-141 364.75,-129.39 375.64,-120.1 385.83,-113.41"/>
<polygon fill="#000000" fill-opacity="0.200000" stroke="#000000" stroke-width="2" stroke-opacity="0.200000" points="387.09,-115.1 391.07,-110.14 384.86,-111.53 387.09,-115.1"/>
</g>
<!-- src/pages/private/CrearMeta.jsx&#45;&gt;src/servicios/sistemaNotificaciones.js -->
<g id="edge20" class="edge">
<title>src/pages/private/CrearMeta.jsx&#45;&gt;src/servicios/sistemaNotificaciones.js</title>
<path fill="none" stroke="#000000" stroke-width="2" stroke-opacity="0.200000" d="M342.61,-557.29C345.83,-555.37 348.72,-552.98 351,-550 368.99,-526.48 337.44,-437.3 359,-417 389.74,-388.05 414.51,-402.06 454,-417 480.24,-426.93 503.12,-451.16 515.84,-466.8"/>
<polygon fill="#000000" fill-opacity="0.200000" stroke="#000000" stroke-width="2" stroke-opacity="0.200000" points="514.38,-468.34 519.75,-471.74 517.67,-465.73 514.38,-468.34"/>
</g>
<!-- src/pages/private/CrearMeta.jsx&#45;&gt;src/data/mocks.js -->
<g id="edge19" class="edge">
<title>src/pages/private/CrearMeta.jsx&#45;&gt;src/data/mocks.js</title>
<path fill="none" stroke="#000000" stroke-width="2" stroke-opacity="0.200000" d="M342.84,-556.9C345.93,-555.05 348.73,-552.78 351,-550 369.39,-527.44 345.91,-511 359,-485 366.17,-470.76 379.35,-458.46 390.44,-449.88"/>
<polygon fill="#000000" fill-opacity="0.200000" stroke="#000000" stroke-width="2" stroke-opacity="0.200000" points="391.81,-451.47 395.36,-446.2 389.3,-448.11 391.81,-451.47"/>
</g>
<!-- src/pages/private/Lista.jsx&#45;&gt;src/components/hooks/useMetas.js -->
<g id="edge21" class="edge">
<title>src/pages/private/Lista.jsx&#45;&gt;src/components/hooks/useMetas.js</title>
<path fill="none" stroke="#000000" stroke-width="2" stroke-opacity="0.200000" d="M332.85,-591.69C339.83,-589.5 346.63,-585.89 351,-580 368.15,-556.88 346.07,-346.72 359,-321 364.86,-309.34 375.87,-300 386.11,-293.29"/>
<polygon fill="#000000" fill-opacity="0.200000" stroke="#000000" stroke-width="2" stroke-opacity="0.200000" points="387.38,-294.97 391.37,-290.02 385.17,-291.41 387.38,-294.97"/>
</g>
<!-- src/pages/private/Meta.jsx -->
<g id="node21" class="node">
<title>src/pages/private/Meta.jsx</title>
<g id="a_node21"><a xlink:href="src/pages/private/Meta.jsx" xlink:title="Meta.jsx">
<polygon fill="#e06c75" stroke="black" points="437.5,-522 383.5,-522 383.5,-504 437.5,-504 437.5,-522"/>
<text text-anchor="start" x="393.5" y="-510.8" font-family="Helvetica,sans-Serif" font-size="9.00">Meta.jsx</text>
</a>
</g>
</g>
<!-- src/pages/private/Lista.jsx&#45;&gt;src/pages/private/Meta.jsx -->
<g id="edge22" class="edge">
<title>src/pages/private/Lista.jsx&#45;&gt;src/pages/private/Meta.jsx</title>
<path fill="none" stroke="#000000" stroke-width="2" stroke-opacity="0.200000" d="M332.89,-591.21C339.7,-589 346.4,-585.5 351,-580 366.56,-561.39 342.77,-544.03 359,-526 363.83,-520.64 370.54,-517.36 377.5,-515.38"/>
<polygon fill="#000000" fill-opacity="0.200000" stroke="#000000" stroke-width="2" stroke-opacity="0.200000" points="378.01,-517.41 383.37,-514 377.05,-513.32 378.01,-517.41"/>
</g>
</g>
</svg>
